<svg width="68" height="69" viewBox="0 0 68 69" fill="none" xmlns="http://www.w3.org/2000/svg">
<path fill-rule="evenodd" clip-rule="evenodd" d="M28.3346 9.11963H39.668C42.7976 9.11963 45.3346 11.6567 45.3346 14.7863V17.6196H56.668C59.7976 17.6196 62.3346 20.1567 62.3346 23.2863V54.453C62.3346 57.5826 59.7976 60.1196 56.668 60.1196H11.3346C8.20502 60.1196 5.66797 57.5826 5.66797 54.453V23.2863C5.66797 20.1567 8.20502 17.6196 11.3346 17.6196H22.668V14.7863C22.668 11.6567 25.205 9.11963 28.3346 9.11963ZM11.3346 23.2863H22.668H45.3346H56.668V37.453H36.8346H31.168H11.3346V23.2863ZM11.3346 54.453V43.1196H31.168V45.953H36.8346V43.1196H56.668V54.453H11.3346ZM39.668 14.7863V17.6196H28.3346V14.7863H39.668Z" fill="white"/>
</svg>
