<svg width="68" height="69" viewBox="0 0 68 69" fill="none" xmlns="http://www.w3.org/2000/svg">
<g id=" basic / book">
<path id="icon" fill-rule="evenodd" clip-rule="evenodd" d="M59.5 62.953H17C12.3056 62.953 8.5 59.1474 8.5 54.453V14.7863C8.5 10.0919 12.3056 6.28632 17 6.28632H59.5V51.6196C57.9352 51.6196 56.6667 52.8882 56.6667 54.453C56.6667 56.0178 57.9352 57.2863 59.5 57.2863V62.953ZM51 54.453C51 53.4595 51.1704 52.5059 51.4837 51.6196H17C15.4352 51.6196 14.1667 52.8882 14.1667 54.453C14.1667 56.0178 15.4352 57.2863 17 57.2863H51.4837C51.1704 56.4001 51 55.4464 51 54.453ZM17 11.953H53.8333V45.953H17C16.0065 45.953 15.0529 46.1234 14.1667 46.4366V14.7863C14.1667 13.2215 15.4352 11.953 17 11.953Z" fill="white"/>
</g>
</svg>
