<svg width="68" height="69" viewBox="0 0 68 69" fill="none" xmlns="http://www.w3.org/2000/svg">
<g id=" basic / glasses">
<path id="icon" fill-rule="evenodd" clip-rule="evenodd" d="M2.83333 37.453C1.26853 37.453 0 36.1845 0 34.6196C0 33.0548 1.26853 31.7863 2.83333 31.7863H4.01212C6.1982 26.7829 11.1908 23.2863 17 23.2863C22.1691 23.2863 26.6917 26.0548 29.1657 30.1899C30.5562 29.4008 32.2333 28.953 34 28.953C35.7667 28.953 37.4438 29.4008 38.8343 30.1899C41.3083 26.0548 45.8309 23.2863 51 23.2863C56.8092 23.2863 61.8018 26.7829 63.9879 31.7863H65.1667C66.7315 31.7863 68 33.0548 68 34.6196C68 36.1845 66.7315 37.453 65.1667 37.453C65.1667 45.277 58.824 51.6197 51 51.6197C43.176 51.6197 36.8333 45.277 36.8333 37.453C36.8333 36.9749 36.857 36.5023 36.9033 36.0363H36.8333C36.8333 35.4599 35.7129 34.6196 34 34.6196C32.2871 34.6196 31.1667 35.4599 31.1667 36.0363H31.0967C31.143 36.5023 31.1667 36.9749 31.1667 37.453C31.1667 45.277 24.824 51.6197 17 51.6197C9.17597 51.6197 2.83333 45.277 2.83333 37.453ZM17 45.953C21.6944 45.953 25.5 42.1474 25.5 37.453C25.5 32.7586 21.6944 28.953 17 28.953C12.3056 28.953 8.5 32.7586 8.5 37.453C8.5 42.1474 12.3056 45.953 17 45.953ZM59.5 37.453C59.5 42.1474 55.6944 45.953 51 45.953C46.3056 45.953 42.5 42.1474 42.5 37.453C42.5 32.7586 46.3056 28.953 51 28.953C55.6944 28.953 59.5 32.7586 59.5 37.453Z" fill="white"/>
</g>
</svg>
