<svg width="19" height="18" viewBox="0 0 19 18" fill="none" xmlns="http://www.w3.org/2000/svg">
<g id=" maps / 360">
<path id="icon" fill-rule="evenodd" clip-rule="evenodd" d="M17.582 9C17.582 4.44365 13.8884 0.75 9.33203 0.75C4.77568 0.75 1.08203 4.44365 1.08203 9C1.08203 13.5563 4.77568 17.25 9.33203 17.25C13.8884 17.25 17.582 13.5563 17.582 9ZM3.06377 6.49089C3.7488 4.7811 5.11313 3.41677 6.82292 2.73174C6.42176 3.50615 6.10707 4.47168 5.89498 5.56294C4.80371 5.77504 3.83818 6.08973 3.06377 6.49089ZM11.8411 2.73174C12.2423 3.50615 12.557 4.47168 12.7691 5.56295C13.8604 5.77504 14.8259 6.08973 15.6003 6.49089C14.9153 4.7811 13.5509 3.41677 11.8411 2.73174ZM2.58203 9C2.58203 8.32556 3.80354 7.59375 5.66789 7.15364C5.61132 7.74811 5.58203 8.36626 5.58203 9C5.58203 9.63374 5.61132 10.2519 5.66789 10.8464C3.80354 10.4063 2.58203 9.67444 2.58203 9ZM13.082 9C13.082 9.63374 13.0527 10.2519 12.9962 10.8464C14.8605 10.4063 16.082 9.67444 16.082 9C16.082 8.32556 14.8605 7.59375 12.9962 7.15364C13.0527 7.74811 13.082 8.36626 13.082 9ZM3.06377 11.5091C3.83818 11.9103 4.80371 12.225 5.89498 12.4371C6.10707 13.5283 6.42176 14.4938 6.82292 15.2683C5.11313 14.5832 3.7488 13.2189 3.06377 11.5091ZM12.7691 12.4371C12.557 13.5283 12.2423 14.4938 11.8411 15.2683C13.5509 14.5832 14.9153 13.2189 15.6003 11.5091C14.8259 11.9103 13.8604 12.225 12.7691 12.4371ZM7.08203 9C7.08203 8.25731 7.12861 7.54479 7.2115 6.87947C7.87682 6.79658 8.58934 6.75 9.33203 6.75C10.0747 6.75 10.7872 6.79658 11.4526 6.87947C11.5355 7.54479 11.582 8.25731 11.582 9C11.582 9.74269 11.5355 10.4552 11.4526 11.1205C10.7872 11.2034 10.0747 11.25 9.33203 11.25C8.58934 11.25 7.87682 11.2034 7.2115 11.1205C7.12861 10.4552 7.08203 9.74269 7.08203 9ZM7.48567 12.6641C7.92578 14.5285 8.65759 15.75 9.33203 15.75C10.0065 15.75 10.7383 14.5285 11.1784 12.6641C10.5839 12.7207 9.96578 12.75 9.33203 12.75C8.69829 12.75 8.08014 12.7207 7.48567 12.6641ZM9.33203 2.25C8.65759 2.25 7.92578 3.47151 7.48567 5.33586C8.08014 5.27929 8.69829 5.25 9.33203 5.25C9.96578 5.25 10.5839 5.27929 11.1784 5.33586C10.7383 3.47151 10.0065 2.25 9.33203 2.25Z" fill="#03FE33"/>
</g>
</svg>
