<svg width="230" height="52" viewBox="0 0 230 52" fill="none" xmlns="http://www.w3.org/2000/svg">
<g clip-path="url(#clip0_13_4055)">
<path d="M83.6215 24.7654L80.9855 22.3777C79.5529 21.0789 78.9417 20.8497 77.2417 20.8497H72.1799V24.7654H68.6844V10.898H81.0046C83.3541 10.898 84.8248 11.3564 85.799 12.2542C86.6776 13.0755 87.0979 14.3171 87.0979 15.8643C87.0979 17.4115 86.6776 18.653 85.799 19.4744C85.1305 20.1047 84.2136 20.5058 82.9529 20.6968C83.8125 21.0216 84.4046 21.48 85.2833 22.2822L87.9956 24.7654H83.6215ZM72.1799 18.0991H80.6608C81.9406 18.0991 82.6282 17.9463 83.0484 17.507C83.3923 17.144 83.5451 16.6092 83.5451 15.8643C83.5451 15.1193 83.3923 14.6036 83.0484 14.2407C82.6282 13.8014 81.9406 13.6485 80.6608 13.6485H72.1799V18.0991ZM107.101 22.0148V24.7654H90.7887V10.898H107.044V13.6485H94.2842V16.3418H102.88V18.9777H94.2842V22.0148H107.101ZM126.213 24.7654L124.513 22.244H113.969L112.308 24.7654H108.43L117.847 10.898H120.693L130.167 24.7654H126.213ZM119.203 14.3362L115.803 19.4744H122.66L119.203 14.3362ZM147.864 22.0148V24.7654H132.125V10.898H135.62V22.0148H147.864ZM166.452 10.898V13.5912H154.801C153.845 13.5912 153.139 13.6676 152.776 14.0115C152.585 14.1834 152.489 14.4508 152.489 14.7755C152.489 15.5778 153.139 15.8643 154.342 15.9598L161.963 16.5519C164.408 16.7429 165.822 17.0676 166.739 17.9845C167.331 18.5766 167.713 19.4171 167.713 20.6204C167.713 21.8047 167.35 22.7407 166.681 23.3901C165.707 24.3643 164.198 24.7654 161.658 24.7654H149.987V22.0721H162.135C163.683 22.0721 164.332 21.6519 164.332 20.7733C164.332 19.9901 163.874 19.6845 162.479 19.5699L155.412 19.0351C153.387 18.8822 151.553 18.6148 150.369 17.5834C149.681 16.9912 149.166 16.0362 149.166 14.8328C149.166 13.6676 149.605 12.789 150.274 12.1587C151.248 11.2609 152.871 10.898 155.049 10.898H166.452ZM179.697 21.9575H181.817C184.415 21.9575 185.904 21.7856 186.84 21.0598C187.662 20.4103 188.025 19.3598 188.025 17.8317C188.025 16.3036 187.662 15.253 186.84 14.6036C185.904 13.8778 184.415 13.7058 181.798 13.7058H179.716C177.099 13.7058 175.609 13.8778 174.673 14.6036C173.852 15.253 173.489 16.3036 173.489 17.8317C173.489 19.3598 173.852 20.4103 174.673 21.0598C175.609 21.7856 177.099 21.9575 179.697 21.9575ZM179.372 10.6688H182.142C185.981 10.6688 188.521 11.2418 190.03 12.789C191.138 13.9351 191.692 15.6733 191.692 17.8317C191.692 19.9901 191.138 21.7283 190.03 22.8744C188.521 24.4216 185.981 24.9946 182.103 24.9946H179.372C175.533 24.9946 172.992 24.4216 171.483 22.8744C170.375 21.7283 169.821 19.9901 169.821 17.8317C169.821 15.6733 170.375 13.9351 171.483 12.789C172.992 11.2418 175.533 10.6688 179.372 10.6688ZM198.053 18.9777V24.7654H194.558V10.898H210.622V13.6485H198.053V16.3418H206.458V18.9777H198.053ZM211.489 13.6485V10.898H229.807V13.6485H222.395V24.7654H218.9V13.6485H211.489Z" fill="white"/>
<path d="M80.0418 44.1428L78.7825 42.2752H70.9723L69.7413 44.1428H66.8691L73.8445 33.8707H75.9527L82.9706 44.1428H80.0418ZM74.8491 36.4175L72.3306 40.2236H77.4101L74.8491 36.4175ZM86.0581 39.0067C86.0581 40.0962 86.3269 40.9169 86.9353 41.3979C87.6286 41.9497 88.7181 42.0629 90.6565 42.0629H96.5283V44.1428H90.2745C87.5013 44.1428 85.7468 43.7467 84.6715 42.6713C83.8367 41.8365 83.3415 40.5773 83.3415 39.0067C83.3415 37.4362 83.8367 36.177 84.6715 35.3422C85.7468 34.2668 87.5013 33.8707 90.2745 33.8707H96.5283V35.9506H90.6565C88.7181 35.9506 87.6286 36.0638 86.9353 36.6156C86.3269 37.0966 86.0581 37.9173 86.0581 39.0067ZM110.854 44.1428L109.595 42.2752H101.785L100.554 44.1428H97.6818L104.657 33.8707H106.765L113.783 44.1428H110.854ZM105.662 36.4175L103.143 40.2236H108.223L105.662 36.4175ZM115.233 44.1428V33.8707H122.775C125.548 33.8707 127.302 34.2527 128.378 35.328C129.213 36.1628 129.722 37.4362 129.722 39.0067C129.722 40.5773 129.213 41.8507 128.378 42.6855C127.302 43.7608 125.548 44.1428 122.775 44.1428H115.233ZM127.005 39.0067C127.005 37.9173 126.736 37.0966 126.128 36.6156C125.435 36.0638 124.345 35.9506 122.407 35.9506H117.823V42.0629H122.407C124.345 42.0629 125.435 41.9497 126.128 41.3979C126.736 40.9169 127.005 40.0962 127.005 39.0067ZM143.925 42.1054V44.1428H131.842V33.8707H143.883V35.9081H134.431V37.9031H140.798V39.8557H134.431V42.1054H143.925ZM153.866 43.8598L148.744 37.7899V44.1428H146.239V33.8707H148.617L154.885 41.2564L161.039 33.8707H163.36V44.1428H160.841V37.7333L155.903 43.8598H153.866ZM172.801 38.653L177.64 33.8707H180.766L174.046 40.4216V44.1428H171.485V40.4358L164.778 33.8707H167.99L172.801 38.653Z" fill="white"/>
<path d="M13.3945 31.1162H58.9038V51.3425H13.3945V31.1162Z" fill="#4C22C3"/>
<path d="M0 20.499H22.7542L36.1541 31.1178H13.4L0 20.499Z" fill="white"/>
<path d="M22.7547 0.272705H45.5093L58.9093 10.8915H36.1546L22.7547 0.272705Z" fill="white"/>
<path d="M-5.73679e-07 40.7248L0.00123739 20.4985L13.4012 31.1173L13.4 51.3437L-5.73679e-07 40.7248Z" fill="#03FE33"/>
<path d="M22.75 20.4982L22.7512 0.271973L36.1512 10.8908L36.15 31.1171L22.75 20.4982Z" fill="#03FE33"/>
<path d="M36.1562 10.8899H58.9109V31.1162H36.1562V10.8899Z" fill="#4C22C3"/>
</g>
<defs>
<clipPath id="clip0_13_4055">
<rect width="230" height="51.4575" fill="white" transform="translate(0 0.27124)"/>
</clipPath>
</defs>
</svg>
